<svg version="1.1" id="Layer_1" xmlns="http://www.w3.org/2000/svg" xmlns:xlink="http://www.w3.org/1999/xlink" x="0px" y="0px"
	 width="100%" viewBox="0 0 207 238" enable-background="new 0 0 207 238" xml:space="preserve">
<path fill="#FEFFFF" opacity="1.000000" stroke="none" 
	d="
M110.000000,239.000000 
	C73.333336,239.000000 37.166672,239.000000 1.000005,239.000000 
	C1.000003,159.666672 1.000003,80.333344 1.000002,1.000015 
	C69.999992,1.000010 138.999985,1.000010 207.999969,1.000005 
	C207.999985,80.333321 207.999985,159.666641 208.000000,238.999969 
	C175.500000,239.000000 143.000000,239.000000 110.000000,239.000000 
M99.820045,110.105904 
	C99.956688,109.792892 100.093338,109.479881 100.040894,109.083473 
	C100.040894,109.083473 100.204987,109.209114 100.765526,108.953423 
	C101.312347,108.099709 101.859169,107.246002 102.071922,106.110977 
	C102.071922,106.110977 102.401573,106.385223 102.970093,106.116806 
	C103.666878,105.084808 104.363655,104.052818 105.509598,102.766754 
	C105.744690,102.315292 105.979774,101.863831 106.788841,101.101112 
	C107.310387,100.165100 107.831932,99.229080 108.016975,98.090096 
	C108.016975,98.090096 108.354790,98.301704 108.881592,98.041435 
	C109.231483,97.357201 109.581375,96.672974 110.175522,95.799255 
	C110.175522,95.799255 110.245850,95.498238 110.844429,95.146629 
	C112.648224,91.812462 114.452019,88.478302 116.096405,85.076248 
	C116.096405,85.076248 116.219963,85.197708 116.768227,84.788643 
	C117.632927,82.173279 118.497620,79.557915 119.715691,76.358093 
	C119.752762,75.907578 119.789841,75.457062 120.094772,74.246811 
	C119.466835,69.029633 118.838898,63.812454 118.213478,58.267162 
	C118.213478,58.267162 118.017319,58.004128 118.037666,57.269527 
	C116.765556,54.780140 115.493454,52.290749 114.075020,49.941803 
	C114.075020,49.941803 114.253113,49.844757 114.180389,49.166325 
	C113.537178,48.267258 112.893959,47.368195 112.185081,46.185509 
	C112.185081,46.185509 111.948746,46.015522 111.847466,45.381550 
	C110.908051,44.244656 109.968636,43.107758 108.856506,41.458733 
	C108.726044,41.334480 108.595581,41.210232 108.383423,40.605877 
	C108.046165,40.285915 107.708916,39.965950 107.006233,39.960056 
	C107.006233,39.960056 107.371017,39.651138 107.211975,39.116142 
	C106.792068,38.770882 106.372154,38.425625 105.994560,38.012177 
	C105.994560,38.012177 105.921280,38.044888 105.750984,37.482227 
	C105.168159,36.980404 104.585335,36.478580 103.785416,35.452888 
	C103.229759,34.953613 102.674103,34.454342 101.962151,33.438229 
	C101.665497,33.252541 101.368843,33.066853 101.028893,32.968250 
	C101.028893,32.968250 101.117218,32.927547 100.971786,32.410679 
	C100.674599,32.231197 100.377411,32.051712 100.034729,31.964153 
	C100.034729,31.964153 100.126488,31.918324 99.962914,31.396830 
	C99.655655,31.225760 99.348389,31.054691 98.822136,30.464136 
	C98.615189,30.203600 98.347168,30.048845 97.803848,29.473005 
	C97.330231,29.181147 96.856613,28.889288 96.091751,28.871771 
	C96.091751,28.871771 96.352562,28.568348 96.182129,28.115084 
	C95.981972,27.830368 95.708290,27.675941 95.081787,27.920647 
	C95.081787,27.920647 95.334114,27.626329 95.166054,27.157251 
	C94.962166,26.863661 94.682144,26.701685 94.013466,26.944691 
	C94.013466,26.944691 94.309814,26.653589 94.070694,26.125528 
	C93.719078,26.046694 93.367470,25.967859 92.484146,25.629530 
	C92.168968,25.403421 91.853783,25.177313 91.369049,24.377272 
	C89.278435,22.829916 87.187828,21.282560 84.791512,19.155560 
	C84.041740,18.758726 83.291969,18.361893 82.542198,17.965057 
	C82.353882,18.193848 82.165558,18.422636 81.977242,18.651424 
	C82.967003,19.814360 83.956764,20.977295 85.293617,22.686337 
	C86.545433,24.380911 87.797241,26.075485 89.171013,28.309933 
	C89.431335,28.560703 89.691650,28.811476 90.003304,29.016895 
	C90.003304,29.016895 89.935768,29.028191 89.980743,29.750862 
	C90.701530,31.486763 91.422325,33.222664 92.221214,35.671886 
	C92.427422,36.099136 92.633629,36.526386 92.733833,37.675407 
	C93.242828,40.445225 93.751823,43.215046 94.179810,46.816257 
	C94.331764,47.913231 94.483719,49.010208 94.417755,50.502861 
	C94.417755,50.502861 94.634003,50.899464 94.386452,51.740540 
	C94.333824,53.493824 94.281197,55.247108 93.965012,57.739365 
	C93.130257,66.277351 88.233360,72.984863 84.002449,79.995224 
	C84.002449,79.995224 83.963783,79.948456 83.446823,80.176826 
	C83.157059,80.649925 82.867287,81.123032 82.801018,81.839256 
	C82.801018,81.839256 82.540115,81.636795 82.095207,81.831512 
	C81.825546,82.049538 81.683258,82.331787 81.985367,82.987648 
	C81.985367,82.987648 81.680351,82.666466 81.097679,82.916664 
	C80.324783,83.915070 79.551888,84.913483 78.203873,86.225761 
	C68.131096,96.132683 57.598930,105.619850 48.082420,116.035042 
	C29.037598,136.878372 30.933990,158.374756 52.588104,176.497299 
	C63.346825,185.501373 75.709152,191.412308 88.835777,195.938583 
	C91.017876,196.691010 93.263115,197.260345 95.479179,197.914276 
	C95.775734,197.440170 96.072296,196.966049 96.368851,196.491943 
	C93.095299,193.492065 89.714714,190.599899 86.568069,187.472366 
	C76.761742,177.725601 70.126335,166.441422 74.076256,152.200592 
	C76.300682,144.180756 80.647408,136.749573 84.547791,128.793671 
	C84.826164,128.305664 85.104546,127.817650 85.253197,127.004890 
	C85.253197,127.004890 85.399590,127.328773 85.962807,127.048737 
	C86.780182,125.836807 87.597565,124.624878 88.249901,123.231277 
	C88.249901,123.231277 88.458176,123.361153 88.903038,123.166016 
	C89.170128,122.944527 89.307854,122.660339 89.082253,121.980835 
	C89.082253,121.980835 89.304939,122.317261 89.890961,122.031868 
	C91.366982,120.110870 92.843002,118.189865 94.134216,116.117592 
	C94.134216,116.117592 94.273117,116.311852 94.878868,116.061745 
	C96.063614,114.525513 97.248360,112.989281 98.412987,111.368126 
	C98.412987,111.368126 98.499939,111.375641 98.931526,111.167183 
	C99.188408,110.942329 99.320511,110.659241 98.992279,110.030472 
	C98.992279,110.030472 99.334244,110.308495 99.820045,110.105904 
M93.567879,151.186920 
	C90.134483,165.959686 92.006561,175.359024 99.392746,181.190613 
	C100.079254,177.101334 99.779770,172.364578 101.697128,168.830521 
	C105.610565,161.617279 110.357536,154.769608 115.429649,148.295044 
	C120.951233,141.246750 128.082657,135.359055 133.004349,127.962059 
	C143.529587,112.143311 144.743790,94.734146 138.793945,76.821388 
	C138.057159,74.603180 136.501480,72.656975 135.325272,70.584732 
	C134.108978,71.881050 133.861725,72.584335 134.016983,73.183311 
	C136.685883,83.479515 133.639877,92.704941 127.976883,101.005157 
	C122.929146,108.403618 116.988747,115.192146 111.458374,122.262436 
	C104.600166,131.030319 97.145439,139.427460 93.567879,151.186920 
M119.081467,184.542084 
	C123.654152,181.513214 128.129013,178.321976 132.822693,175.493912 
	C139.690094,171.356125 145.002060,165.876190 148.916550,158.870377 
	C154.086685,149.617401 152.654160,136.098770 145.380753,128.190521 
	C145.249008,128.047287 144.771484,128.222061 144.037323,128.283340 
	C146.629501,140.006104 140.797882,148.741150 133.377609,156.656342 
	C128.380127,161.987122 122.888824,166.858810 117.562416,171.876404 
	C110.678162,178.361481 107.027061,186.142288 107.568306,193.760498 
	C110.546471,191.361557 114.522606,188.158737 119.081467,184.542084 
z"/>
<path fill="#0779AD" opacity="1.000000" stroke="none" 
	d="
M92.839828,36.953636 
	C92.633629,36.526386 92.427422,36.099136 92.409012,35.085503 
	C91.709793,32.675480 90.822784,30.851835 89.935768,29.028191 
	C89.935768,29.028191 90.003304,29.016895 90.000122,28.732971 
	C89.712135,27.920778 89.427330,27.392506 89.107658,26.549858 
	C89.894730,25.807390 90.716667,25.379297 91.538605,24.951206 
	C91.853783,25.177313 92.168968,25.403421 92.884827,26.002621 
	C93.626945,26.468338 93.968384,26.560965 94.309814,26.653591 
	C94.309814,26.653589 94.013466,26.944691 94.183792,27.092659 
	C94.680786,27.369194 95.007454,27.497763 95.334114,27.626329 
	C95.334114,27.626329 95.081787,27.920647 95.231339,28.068197 
	C95.704773,28.333281 96.028671,28.450813 96.352562,28.568348 
	C96.352562,28.568348 96.091751,28.871771 96.248047,29.051437 
	C96.942253,29.487362 97.480164,29.743618 98.018074,29.999874 
	C98.347168,30.048845 98.615189,30.203600 99.026276,30.924362 
	C99.529106,31.562498 99.827797,31.740410 100.126488,31.918324 
	C100.126488,31.918324 100.034729,31.964153 100.138123,32.171513 
	C100.533417,32.561764 100.825317,32.744656 101.117218,32.927547 
	C101.117218,32.927547 101.028893,32.968250 101.132339,33.180969 
	C101.530014,33.580818 101.824226,33.767944 102.118446,33.955070 
	C102.674103,34.454342 103.229759,34.953613 103.919693,36.034050 
	C104.676407,37.091770 105.298843,37.568329 105.921280,38.044891 
	C105.921280,38.044888 105.994560,38.012177 106.005936,38.352867 
	C106.468544,39.012749 106.919777,39.331944 107.371017,39.651138 
	C107.371017,39.651138 107.006233,39.960056 107.154617,40.064651 
	C107.690384,40.474831 108.077751,40.780407 108.465126,41.085987 
	C108.595581,41.210232 108.726044,41.334480 108.929115,42.075333 
	C109.984062,43.799797 110.966408,44.907658 111.948746,46.015522 
	C111.948746,46.015522 112.185081,46.185509 112.227097,46.681183 
	C112.930443,48.066158 113.591782,48.955456 114.253113,49.844757 
	C114.253113,49.844757 114.075020,49.941803 114.102722,50.243809 
	C115.426064,53.031918 116.721687,55.518024 118.017319,58.004128 
	C118.017319,58.004128 118.213478,58.267162 118.148132,58.878601 
	C118.664162,64.662209 119.245537,69.834381 119.826920,75.006546 
	C119.789841,75.457062 119.752762,75.907578 119.245171,76.788925 
	C117.923088,79.879066 117.071526,82.538391 116.219963,85.197708 
	C116.219963,85.197708 116.096405,85.076248 115.855911,85.235725 
	C113.825562,88.762878 112.035706,92.130562 110.245850,95.498238 
	C110.245850,95.498238 110.175522,95.799255 109.721703,95.951477 
	C108.963516,96.836372 108.659157,97.569038 108.354797,98.301704 
	C108.354790,98.301704 108.016975,98.090096 107.822296,98.236771 
	C107.156700,99.393089 106.685783,100.402725 106.214859,101.412361 
	C105.979774,101.863831 105.744690,102.315292 104.945480,102.927383 
	C103.721436,104.187088 103.061508,105.286156 102.401581,106.385223 
	C102.401573,106.385223 102.071922,106.110977 101.884254,106.247414 
	C101.199387,107.325600 100.702187,108.267357 100.204987,109.209114 
	C100.204987,109.209114 100.040894,109.083473 99.866150,109.200043 
	C99.572350,109.647247 99.453293,109.977867 99.334244,110.308495 
	C99.334244,110.308495 98.992279,110.030472 98.875999,110.200577 
	C98.673126,110.705666 98.586533,111.040649 98.499939,111.375641 
	C98.499939,111.375641 98.412987,111.368126 98.070511,111.373703 
	C96.576401,113.023468 95.424759,114.667656 94.273117,116.311852 
	C94.273117,116.311852 94.134216,116.117592 93.880516,116.228485 
	C92.186188,118.332008 90.745560,120.324631 89.304939,122.317261 
	C89.304939,122.317261 89.082253,121.980835 88.919022,122.175537 
	C88.656593,122.700546 88.557381,123.030846 88.458176,123.361153 
	C88.458176,123.361153 88.249901,123.231277 87.970474,123.309402 
	C86.927231,124.701279 86.163406,126.015022 85.399582,127.328766 
	C85.399590,127.328773 85.253197,127.004890 84.997452,127.195526 
	C84.507164,127.941841 84.272621,128.497513 84.038071,129.053192 
	C80.647408,136.749573 76.300682,144.180756 74.076256,152.200592 
	C70.126335,166.441422 76.761742,177.725601 86.568069,187.472366 
	C89.714714,190.599899 93.095299,193.492065 96.368851,196.491943 
	C96.072296,196.966049 95.775734,197.440170 95.479179,197.914276 
	C93.263115,197.260345 91.017876,196.691010 88.835777,195.938583 
	C75.709152,191.412308 63.346825,185.501373 52.588104,176.497299 
	C30.933990,158.374756 29.037598,136.878372 48.082420,116.035042 
	C57.598930,105.619850 68.131096,96.132683 78.812683,85.978104 
	C80.174446,84.709122 80.927399,83.687790 81.680351,82.666466 
	C81.680351,82.666466 81.985367,82.987648 82.108337,82.806984 
	C82.334244,82.296478 82.437180,81.966637 82.540115,81.636795 
	C82.540115,81.636795 82.801018,81.839256 83.010559,81.713226 
	C83.467995,81.040947 83.715889,80.494698 83.963783,79.948456 
	C83.963783,79.948456 84.002449,79.995224 84.328888,79.955841 
	C87.963432,73.845879 91.392067,67.835419 94.475990,61.653000 
	C95.079025,60.444080 94.345589,58.568493 94.228569,57.000393 
	C94.281197,55.247108 94.333824,53.493824 94.606842,51.242844 
	C94.935150,50.477955 94.871300,50.265297 94.635681,50.107182 
	C94.483719,49.010208 94.331764,47.913231 94.448273,46.110706 
	C94.091103,42.587982 93.465469,39.770809 92.839828,36.953636 
z"/>
<path fill="#0B79AC" opacity="1.000000" stroke="none" 
	d="
M93.700882,150.801758 
	C97.145439,139.427460 104.600166,131.030319 111.458374,122.262436 
	C116.988747,115.192146 122.929146,108.403618 127.976883,101.005157 
	C133.639877,92.704941 136.685883,83.479515 134.016983,73.183311 
	C133.861725,72.584335 134.108978,71.881050 135.325272,70.584732 
	C136.501480,72.656975 138.057159,74.603180 138.793945,76.821388 
	C144.743790,94.734146 143.529587,112.143311 133.004349,127.962059 
	C128.082657,135.359055 120.951233,141.246750 115.429649,148.295044 
	C110.357536,154.769608 105.610565,161.617279 101.697128,168.830521 
	C99.779770,172.364578 100.079254,177.101334 99.392746,181.190613 
	C92.006561,175.359024 90.134483,165.959686 93.700882,150.801758 
z"/>
<path fill="#0E79AB" opacity="1.000000" stroke="none" 
	d="
M118.790100,184.748993 
	C114.522606,188.158737 110.546471,191.361557 107.568306,193.760498 
	C107.027061,186.142288 110.678162,178.361481 117.562416,171.876404 
	C122.888824,166.858810 128.380127,161.987122 133.377609,156.656342 
	C140.797882,148.741150 146.629501,140.006104 144.037323,128.283340 
	C144.771484,128.222061 145.249008,128.047287 145.380753,128.190521 
	C152.654160,136.098770 154.086685,149.617401 148.916550,158.870377 
	C145.002060,165.876190 139.690094,171.356125 132.822693,175.493912 
	C128.129013,178.321976 123.654152,181.513214 118.790100,184.748993 
z"/>
<path fill="#3686AA" opacity="1.000000" stroke="none" 
	d="
M94.096786,57.369881 
	C94.345589,58.568493 95.079025,60.444080 94.475990,61.653000 
	C91.392067,67.835419 87.963432,73.845879 84.301849,79.942291 
	C88.233360,72.984863 93.130257,66.277351 94.096786,57.369881 
z"/>
<path fill="#3787AB" opacity="1.000000" stroke="none" 
	d="
M119.960846,74.626678 
	C119.245537,69.834381 118.664162,64.662209 118.146873,59.042660 
	C118.838898,63.812454 119.466835,69.029633 119.960846,74.626678 
z"/>
<path fill="#3787AB" opacity="1.000000" stroke="none" 
	d="
M91.453827,24.664238 
	C90.716667,25.379297 89.894730,25.807390 89.070816,26.775419 
	C89.068848,27.315355 89.049057,27.770060 89.049057,27.770060 
	C87.797241,26.075485 86.545433,24.380911 85.143311,22.012331 
	C85.027733,20.803951 85.062477,20.269577 85.097214,19.735203 
	C87.187828,21.282560 89.278435,22.829916 91.453827,24.664238 
z"/>
<path fill="#3787AB" opacity="1.000000" stroke="none" 
	d="
M110.545135,95.322433 
	C112.035706,92.130562 113.825562,88.762878 115.935608,85.269669 
	C114.452019,88.478302 112.648224,91.812462 110.545135,95.322433 
z"/>
<path fill="#3787AB" opacity="1.000000" stroke="none" 
	d="
M116.494095,84.993179 
	C117.071526,82.538391 117.923088,79.879066 119.068481,77.081146 
	C118.497620,79.557915 117.632927,82.173279 116.494095,84.993179 
z"/>
<path fill="#3686AA" opacity="1.000000" stroke="none" 
	d="
M92.786835,37.314522 
	C93.465469,39.770809 94.091103,42.587982 94.488785,45.695011 
	C93.751823,43.215046 93.242828,40.445225 92.786835,37.314522 
z"/>
<path fill="#3787AB" opacity="1.000000" stroke="none" 
	d="
M118.027489,57.636829 
	C116.721687,55.518024 115.426064,53.031918 114.175888,50.173588 
	C115.493454,52.290749 116.765556,54.780140 118.027489,57.636829 
z"/>
<path fill="#3787AB" opacity="1.000000" stroke="none" 
	d="
M89.597946,122.174561 
	C90.745560,120.324631 92.186188,118.332008 93.972916,116.304123 
	C92.843002,118.189865 91.366982,120.110870 89.597946,122.174561 
z"/>
<path fill="#3686AA" opacity="1.000000" stroke="none" 
	d="
M89.958252,29.389526 
	C90.822784,30.851835 91.709793,32.675480 92.369965,34.728844 
	C91.422325,33.222664 90.701530,31.486763 89.958252,29.389526 
z"/>
<path fill="#3787AB" opacity="1.000000" stroke="none" 
	d="
M94.575989,116.186798 
	C95.424759,114.667656 96.576401,113.023468 98.080574,111.416161 
	C97.248360,112.989281 96.063614,114.525513 94.575989,116.186798 
z"/>
<path fill="#3787AB" opacity="1.000000" stroke="none" 
	d="
M85.681198,127.188751 
	C86.163406,126.015022 86.927231,124.701279 88.052994,123.400238 
	C87.597565,124.624878 86.780182,125.836807 85.681198,127.188751 
z"/>
<path fill="#3787AB" opacity="1.000000" stroke="none" 
	d="
M111.898102,45.698536 
	C110.966408,44.907658 109.984062,43.799797 109.015472,42.331398 
	C109.968636,43.107758 110.908051,44.244656 111.898102,45.698536 
z"/>
<path fill="#3686AA" opacity="1.000000" stroke="none" 
	d="
M84.944366,19.445381 
	C85.062477,20.269577 85.027733,20.803951 84.969757,21.739277 
	C83.956764,20.977295 82.967003,19.814360 81.977242,18.651424 
	C82.165558,18.422636 82.353882,18.193848 82.542198,17.965057 
	C83.291969,18.361893 84.041740,18.758726 84.944366,19.445381 
z"/>
<path fill="#3787AB" opacity="1.000000" stroke="none" 
	d="
M102.685837,106.251022 
	C103.061508,105.286156 103.721436,104.187088 104.720901,103.054420 
	C104.363655,104.052818 103.666878,105.084808 102.685837,106.251022 
z"/>
<path fill="#3787AB" opacity="1.000000" stroke="none" 
	d="
M100.485252,109.081268 
	C100.702187,108.267357 101.199387,107.325600 102.051285,106.388069 
	C101.859169,107.246002 101.312347,108.099709 100.485252,109.081268 
z"/>
<path fill="#3787AB" opacity="1.000000" stroke="none" 
	d="
M106.501846,101.256737 
	C106.685783,100.402725 107.156700,99.393089 107.990547,98.338257 
	C107.831932,99.229080 107.310387,100.165100 106.501846,101.256737 
z"/>
<path fill="#3686AA" opacity="1.000000" stroke="none" 
	d="
M81.389015,82.791565 
	C80.927399,83.687790 80.174446,84.709122 79.100243,85.821167 
	C79.551888,84.913483 80.324783,83.915070 81.389015,82.791565 
z"/>
<path fill="#3787AB" opacity="1.000000" stroke="none" 
	d="
M114.216751,49.505539 
	C113.591782,48.955456 112.930443,48.066158 112.259933,46.822994 
	C112.893959,47.368195 113.537178,48.267258 114.216751,49.505539 
z"/>
<path fill="#3787AB" opacity="1.000000" stroke="none" 
	d="
M108.618195,98.171570 
	C108.659157,97.569038 108.963516,96.836372 109.599579,96.046219 
	C109.581375,96.672974 109.231483,97.357201 108.618195,98.171570 
z"/>
<path fill="#3787AB" opacity="1.000000" stroke="none" 
	d="
M105.836136,37.763557 
	C105.298843,37.568329 104.676407,37.091770 104.028244,36.295986 
	C104.585335,36.478580 105.168159,36.980404 105.836136,37.763557 
z"/>
<path fill="#3686AA" opacity="1.000000" stroke="none" 
	d="
M83.705307,80.062637 
	C83.715889,80.494698 83.467995,81.040947 82.898811,81.591660 
	C82.867287,81.123032 83.157059,80.649925 83.705307,80.062637 
z"/>
<path fill="#3787AB" opacity="1.000000" stroke="none" 
	d="
M84.292931,128.923431 
	C84.272621,128.497513 84.507164,127.941841 85.062317,127.357903 
	C85.104546,127.817650 84.826164,128.305664 84.292931,128.923431 
z"/>
<path fill="#3686AA" opacity="1.000000" stroke="none" 
	d="
M89.110031,28.039997 
	C89.049057,27.770060 89.068848,27.315355 89.105682,27.089794 
	C89.427330,27.392506 89.712135,27.920778 89.974457,28.755648 
	C89.691650,28.811476 89.431335,28.560703 89.110031,28.039997 
z"/>
<path fill="#3787AB" opacity="1.000000" stroke="none" 
	d="
M97.910965,29.736439 
	C97.480164,29.743618 96.942253,29.487362 96.393669,28.914268 
	C96.856613,28.889288 97.330231,29.181147 97.910965,29.736439 
z"/>
<path fill="#3787AB" opacity="1.000000" stroke="none" 
	d="
M107.291496,39.383640 
	C106.919777,39.331944 106.468544,39.012749 105.984772,38.386959 
	C106.372154,38.425625 106.792068,38.770882 107.291496,39.383640 
z"/>
<path fill="#3787AB" opacity="1.000000" stroke="none" 
	d="
M108.424271,40.845932 
	C108.077751,40.780407 107.690384,40.474831 107.337334,39.907616 
	C107.708916,39.965950 108.046165,40.285915 108.424271,40.845932 
z"/>
<path fill="#3787AB" opacity="1.000000" stroke="none" 
	d="
M94.190254,26.389561 
	C93.968384,26.560965 93.626945,26.468338 93.150681,26.132368 
	C93.367470,25.967859 93.719078,26.046694 94.190254,26.389561 
z"/>
<path fill="#3787AB" opacity="1.000000" stroke="none" 
	d="
M101.044502,32.669113 
	C100.825317,32.744656 100.533417,32.561764 100.160873,32.125549 
	C100.377411,32.051712 100.674599,32.231197 101.044502,32.669113 
z"/>
<path fill="#3787AB" opacity="1.000000" stroke="none" 
	d="
M88.680603,123.263580 
	C88.557381,123.030846 88.656593,122.700546 89.036003,122.341850 
	C89.307854,122.660339 89.170128,122.944527 88.680603,123.263580 
z"/>
<path fill="#3787AB" opacity="1.000000" stroke="none" 
	d="
M95.250084,27.391790 
	C95.007454,27.497763 94.680786,27.369194 94.340057,26.955975 
	C94.682144,26.701685 94.962166,26.863661 95.250084,27.391790 
z"/>
<path fill="#3787AB" opacity="1.000000" stroke="none" 
	d="
M96.267349,28.341717 
	C96.028671,28.450813 95.704773,28.333281 95.370987,27.933775 
	C95.708290,27.675941 95.981972,27.830368 96.267349,28.341717 
z"/>
<path fill="#3787AB" opacity="1.000000" stroke="none" 
	d="
M98.715729,111.271408 
	C98.586533,111.040649 98.673126,110.705666 99.043777,110.344292 
	C99.320511,110.659241 99.188408,110.942329 98.715729,111.271408 
z"/>
<path fill="#3787AB" opacity="1.000000" stroke="none" 
	d="
M99.577148,110.207199 
	C99.453293,109.977867 99.572350,109.647247 99.960693,109.241745 
	C100.093338,109.479881 99.956688,109.792892 99.577148,110.207199 
z"/>
<path fill="#3686AA" opacity="1.000000" stroke="none" 
	d="
M94.526718,50.305023 
	C94.871300,50.265297 94.935150,50.477955 94.730621,50.822308 
	C94.634003,50.899464 94.417755,50.502861 94.526718,50.305023 
z"/>
<path fill="#3787AB" opacity="1.000000" stroke="none" 
	d="
M102.040298,33.696648 
	C101.824226,33.767944 101.530014,33.580818 101.153992,33.137428 
	C101.368843,33.066853 101.665497,33.252541 102.040298,33.696648 
z"/>
<path fill="#3686AA" opacity="1.000000" stroke="none" 
	d="
M82.317657,81.734154 
	C82.437180,81.966637 82.334244,82.296478 81.949829,82.652283 
	C81.683258,82.331787 81.825546,82.049538 82.317657,81.734154 
z"/>
<path fill="#3787AB" opacity="1.000000" stroke="none" 
	d="
M100.044701,31.657578 
	C99.827797,31.740410 99.529106,31.562498 99.135773,31.134106 
	C99.348389,31.054691 99.655655,31.225760 100.044701,31.657578 
z"/>
</svg>